# xmcd
#
# Track frame offsets:
#	150
#	12597
#	25924
#	38567
#	48869
#	59616
#	72081
#	85793
#	97807
#	110994
#	123220
#	134926
#	149004
#	160087
#	173306
#	192274
#
# Disc length: 2702 seconds
#
# Revision: 3
# Processed by: cddbd v1.5.1PL2 Copyright (c) Steve Scherf et al.
# Submitted via: audiograbber 1.83.01
#
DISCID=db0a8c10
DTITLE=Various Artist - Hymns Of The West
DYEAR=2003
DGENRE=Country
TTITLE0=Kenny Rogers - Ruben James
TTITLE1=Lynn Anderson - Rose Garden
TTITLE2=Exile - Gimme One More Chance
TTITLE3=Dave Dudley - Six Days On The Road
TTITLE4=Patsy Cline - Stop Look And Listen
TTITLE5=Johnny Paycheck - Take This Job And Shove It
TTITLE6=Lacy J. Dalton - 16th Avenue
TTITLE7=Freddy Fender - Before The Next Teardrop Falls
TTITLE8=TG Sheppard - Devil In The Bottle
TTITLE9=Jeanne Pruett - Satin Sheets
TTITLE10=Donna Fargo - The Happiest Girl In The Whole USA
TTITLE11=Moe Bandy - I Cheated Me Right Out Of You
TTITLE12=Jack Greene - There Goes My Everything
TTITLE13=Ferlin Husky - Room Full Of Roses
TTITLE14=Alabama - I Want To Be With You Tonight
TTITLE15=Mickey Gilley - Forgive Me
EXTD=
EXTT0=
EXTT1=
EXTT2=
EXTT3=
EXTT4=
EXTT5=
EXTT6=
EXTT7=
EXTT8=
EXTT9=
EXTT10=
EXTT11=
EXTT12=
EXTT13=
EXTT14=
EXTT15=
PLAYORDER=
